<svg width="88" height="110" viewBox="0 0 88 110" fill="none" xmlns="http://www.w3.org/2000/svg">
<g id="rubato2 1" clip-path="url(#clip0_1730_33)">
<path id="Vector" d="M4.54614 60.584C10.0664 53.0728 17.5351 46.2534 27.385 44.4744C38.3174 43.1896 58.7749 45.858 55.203 29.9461C54.2288 25.5975 52.6052 21.4465 52.4969 16.9003C52.4969 10.9704 58.0172 7.31357 62.1304 3.36029" stroke="#E6EAEF" stroke-width="10" stroke-miterlimit="10"/>
<path id="Vector_2" d="M71.2226 9.29019C68.0836 12.7493 63.6457 15.9119 63.1045 20.557C62.4551 25.9928 64.7282 31.1321 64.187 36.6666C63.5375 42.8931 58.4502 49.0206 51.631 50.9973C33.1218 54.2587 26.8438 50.1078 13.0972 65.7233" stroke="#E6EAEF" stroke-width="2" stroke-miterlimit="10"/>
<path id="Vector_3" d="M79.016 45.9569C72.305 53.5669 64.2952 61.6712 53.6876 61.77C35.7195 60.9793 31.7146 65.6244 31.4981 81.9317C31.7146 92.2102 26.519 96.1635 19.0504 102.785" stroke="#E6EAEF" stroke-width="10" stroke-miterlimit="10"/>
<path id="Vector_4" d="M27.0602 109.012C37.1267 102.884 41.6728 89.1465 40.8069 78.0773" stroke="#E6EAEF" stroke-width="2.2" stroke-miterlimit="10"/>
<path id="Vector_5" d="M87.0258 52.5786C76.6347 65.8221 67.2177 72.2462 48.8167 71.159" stroke="#E6EAEF" stroke-width="2.2" stroke-miterlimit="10"/>
<path id="Vector_6" d="M48.8167 76.2983C48.492 78.6702 44.3788 78.1761 44.8118 75.8041C45.1365 73.4321 49.2497 73.9263 48.8167 76.2983Z" fill="#FFFDFD"/>
</g>
<defs>
<clipPath id="clip0_1730_33">
<rect width="88" height="110" fill="white"/>
</clipPath>
</defs>
</svg>
