<svg width="24" height="23" viewBox="0 0 24 23" fill="none" xmlns="http://www.w3.org/2000/svg">
<path id="Union" fill-rule="evenodd" clip-rule="evenodd" d="M12.3929 0.1035L23.5647 6.37675C23.9672 6.60445 24.1176 7.1277 23.9009 7.54515C23.683 7.96375 23.1788 8.1167 22.7763 7.89475L21.8717 7.38645L20.0737 20.5999C19.8327 22.0248 18.624 23 17.129 23H6.8651C5.37228 23 4.16255 22.0259 3.92591 20.6287L2.12459 7.38875L1.22337 7.89475C1.09842 7.96375 0.962405 7.99825 0.829711 7.99825C0.535571 7.99825 0.249173 7.8338 0.0998914 7.5463C-0.117949 7.12655 0.0324384 6.6033 0.434945 6.37675L11.6045 0.1035C11.8511 -0.0345 12.1463 -0.0345 12.3929 0.1035ZM17.1312 21.275C17.6587 21.275 18.3177 21.0266 18.4361 20.3297L20.3159 6.51245L11.9982 1.84345L3.68264 6.51475L5.56469 20.3573C5.67859 21.0266 6.33653 21.275 6.86731 21.275H17.1312ZM11.9987 16.0298C9.69309 16.0298 7.81878 14.0794 7.81878 11.6828C7.81878 9.28625 9.69309 7.33585 11.9987 7.33585C14.3042 7.33585 16.1785 9.28625 16.1785 11.6828C16.1785 14.0794 14.3042 16.0298 11.9987 16.0298ZM11.9987 14.3048C13.3897 14.3048 14.5198 13.1295 14.5198 11.6828C14.5198 10.2361 13.3897 9.06085 11.9987 9.06085C10.6076 9.06085 9.47746 10.2361 9.47746 11.6828C9.47746 13.1295 10.6076 14.3048 11.9987 14.3048Z" fill="#E6EAEF"/>
</svg>
