<svg width="20" height="22" viewBox="0 0 20 22" fill="none" xmlns="http://www.w3.org/2000/svg">
<path id="Vector" d="M9.58533 10.9892C11.1268 10.9892 12.8525 10.8269 13.9537 9.63068C14.8797 8.62478 15.1801 7.06942 14.8706 4.88024C14.4383 1.82468 12.4623 0 9.58533 0C6.70832 0 4.7323 1.82468 4.30001 4.8824C3.99058 7.06942 4.29091 8.62478 5.21692 9.63068C6.31812 10.828 8.04387 10.9892 9.58533 10.9892ZM5.99049 5.09656C6.17478 3.79862 6.88579 1.62242 9.58533 1.62242C12.2849 1.62242 12.9959 3.7997 13.1802 5.09656C13.4156 6.77306 13.245 7.93795 12.6682 8.56313C12.1506 9.12557 11.228 9.36677 9.58533 9.36677C7.94262 9.36677 7.02002 9.12557 6.50241 8.56313C5.92565 7.93795 5.75501 6.77198 5.99049 5.09656ZM19.0047 19.0147C18.007 15.201 14.1335 12.5359 9.58533 12.5359C5.03718 12.5359 1.16363 15.201 0.165952 19.0147C-0.0297164 19.7632 0.134098 20.529 0.615306 21.1131C1.07945 21.6755 1.79842 22 2.58678 22H16.5839C17.3722 22 18.0912 21.6755 18.5553 21.1131C19.0377 20.529 19.2004 19.7643 19.0036 19.0147H19.0047ZM17.2118 20.1137C17.0685 20.2867 16.8523 20.3797 16.5839 20.3797H2.58678C2.31944 20.3797 2.10216 20.2878 1.95882 20.1137C1.80297 19.9255 1.75405 19.668 1.82231 19.4063C2.63001 16.3183 5.82326 14.1605 9.58533 14.1605C13.3474 14.1605 16.5406 16.3172 17.3483 19.4063C17.4166 19.668 17.3677 19.9255 17.2118 20.1137Z" fill="#E6EAEF"/>
</svg>
